<?xml version="1.0" encoding="UTF-8" standalone="no"?>
<!-- Created with Inkscape (http://www.inkscape.org/) -->

<svg
   xmlns:dc="http://purl.org/dc/elements/1.1/"
   xmlns:cc="http://creativecommons.org/ns#"
   xmlns:rdf="http://www.w3.org/1999/02/22-rdf-syntax-ns#"
   xmlns:svg="http://www.w3.org/2000/svg"
   xmlns="http://www.w3.org/2000/svg"
   xmlns:sodipodi="http://sodipodi.sourceforge.net/DTD/sodipodi-0.dtd"
   xmlns:inkscape="http://www.inkscape.org/namespaces/inkscape"
   width="149.0107mm"
   height="80.89608mm"
   viewBox="0 0 149.0107 80.89608"
   version="1.1"
   id="svg8"
   sodipodi:docname="drawing.svg"
   inkscape:version="0.92.3 (2405546, 2018-03-11)">
  <defs
     id="defs2" />
  <sodipodi:namedview
     id="base"
     pagecolor="#ffffff"
     bordercolor="#666666"
     borderopacity="1.0"
     inkscape:pageopacity="0.0"
     inkscape:pageshadow="2"
     inkscape:zoom="0.7"
     inkscape:cx="-395.04902"
     inkscape:cy="-231.93378"
     inkscape:document-units="mm"
     inkscape:current-layer="layer1"
     showgrid="false"
     inkscape:window-width="1920"
     inkscape:window-height="1017"
     inkscape:window-x="0"
     inkscape:window-y="30"
     inkscape:window-maximized="1" />
  <metadata
     id="metadata5">
    <rdf:RDF>
      <cc:Work
         rdf:about="">
        <dc:format>image/svg+xml</dc:format>
        <dc:type
           rdf:resource="http://purl.org/dc/dcmitype/StillImage" />
      </cc:Work>
    </rdf:RDF>
  </metadata>
  <g
     inkscape:label="Layer 1"
     inkscape:groupmode="layer"
     id="layer1"
     transform="translate(-27.043781,-3.9115257)">
    <circle
       id="path3716"
       cx="67.487236"
       cy="44.35498"
       r="40.443455"
       style="fill:#ccffff;fill-opacity:1;stroke-width:0.26458332" />
    <path
       style="fill:#0044aa;fill-opacity:1;stroke:#0044aa;stroke-width:0.13363476;stroke-opacity:1"
       d="M 63.995573,84.670766 C 53.886193,83.762605 44.587052,79.165774 37.664931,71.654782 l -1.121673,-1.217094 1.097673,-0.877072 c 4.218476,-3.370691 9.469471,-5.538303 15.663861,-6.466052 0.796605,-0.119308 2.443597,-0.177715 4.877671,-0.172974 3.05736,0.006 3.97842,0.05464 5.4807,0.289677 4.937041,0.772427 8.950119,1.990603 14.24391,4.323757 1.477402,0.651142 3.101065,1.331569 3.608139,1.512062 5.731772,2.040215 10.801051,2.337745 16.076191,0.943555 0.690917,-0.182605 1.285836,-0.302387 1.322039,-0.266185 0.101766,0.101765 -1.334958,1.714649 -3.040261,3.413035 -6.552047,6.525461 -15.185239,10.561672 -24.575262,11.489481 -1.278191,0.126297 -6.064435,0.155001 -7.302346,0.04379 z"
       id="path4595"
       inkscape:connector-curvature="0" />
    <path
       style="fill:#0055d4;fill-opacity:1;stroke:#0055d4;stroke-width:0.13363476;stroke-opacity:1"
       d="M 89.252544,70.655745 C 89.032045,70.625426 88.310418,70.532833 87.648925,70.449978 86.221742,70.271221 83.818214,69.695262 82.23672,69.153049 81.611975,68.938856 79.687637,68.161034 77.960405,67.424553 72.381203,65.045607 69.088003,64.025805 64.196026,63.162152 63.002824,62.951499 62.07298,62.914449 57.982009,62.914555 l -4.81085,1.25e-4 -2.039694,0.434128 c -5.166709,1.099682 -9.495787,3.015657 -13.19467,5.83973 l -1.469982,1.122322 -0.30269,-0.357346 c -0.747347,-0.88229 -2.372653,-3.179638 -3.164424,-4.472871 -2.764041,-4.514614 -4.574835,-9.383522 -5.423221,-14.582082 -0.246281,-1.509114 -0.24774,-1.601343 -0.0279,-1.764217 5.103078,-3.780687 9.879922,-6.128409 14.622133,-7.18648 6.029402,-1.345269 11.411485,-0.30238 15.878112,3.076712 0.69824,0.528235 2.177097,1.887932 3.286347,3.021547 3.615325,3.694745 5.913101,4.827587 9.809858,4.836427 2.028545,0.0046 3.196434,-0.195273 5.513229,-0.943549 2.7892,-0.900856 5.047117,-2.017313 11.227358,-5.551527 4.380635,-2.505096 7.735009,-4.171876 9.719098,-4.829392 1.536467,-0.509177 3.540277,-0.896467 4.600547,-0.889175 1.754,0.01206 3.98395,0.730819 5.24025,1.689045 l 0.48486,0.369826 -0.0749,2.87705 c -0.0849,3.258024 -0.36975,5.447967 -1.08717,8.356595 -1.15032,4.663736 -2.97857,8.833321 -5.59561,12.7616 -1.532091,2.299716 -2.065856,2.939965 -2.451016,2.939965 -0.185581,0 -0.798456,0.117647 -1.361948,0.261441 -1.81607,0.463428 -3.516304,0.685694 -5.634923,0.736637 -1.139235,0.02739 -2.251745,0.025 -2.472243,-0.0053 z"
       id="path4597"
       inkscape:connector-curvature="0" />
    <path
       style="fill:#2a7fff;fill-opacity:1;stroke:#2a7fff;stroke-width:0.13363476;stroke-opacity:1"
       d="m 69.790292,52.6773 c -2.203879,-0.176033 -4.144881,-1.000324 -6.029394,-2.560524 -0.458923,-0.379944 -1.817709,-1.640131 -3.019528,-2.800419 -3.012541,-2.908429 -4.90143,-4.1446 -7.816083,-5.115173 -3.604273,-1.200219 -7.507451,-1.224693 -11.922223,-0.07476 -3.850522,1.002961 -8.398468,3.237132 -12.363393,6.073497 l -1.254827,0.897657 -0.120764,-0.374666 c -0.06642,-0.206068 -0.124676,-2.118603 -0.129457,-4.250076 -0.0094,-4.206922 0.146505,-5.748067 0.926971,-9.161161 l 0.353059,-1.543981 1.553837,-1.012351 c 6.538948,-4.260239 14.560012,-7.510436 21.863877,-8.859412 2.741301,-0.506298 5.393574,-0.737841 8.451861,-0.737841 6.582653,0 11.996309,1.265233 17.809813,4.162349 2.171795,1.082299 3.252258,1.755613 7.817633,4.871735 1.722543,1.175732 4.157919,2.399515 5.946748,2.98826 4.608621,1.516803 9.658108,1.151046 13.919238,-1.008232 0.37044,-0.187714 0.70544,-0.309388 0.74444,-0.270385 0.29448,0.294478 1.12138,5.001413 1.3148,7.484147 l 0.0927,1.189439 -0.46102,-0.351639 c -0.60391,-0.460621 -1.9789,-1.078714 -3.05618,-1.373825 -1.39552,-0.382289 -3.44812,-0.313105 -5.33766,0.179906 -0.845241,0.220538 -1.95775,0.56601 -2.472246,0.767712 -1.597167,0.626161 -5.445029,2.605786 -9.488066,4.881362 -4.222927,2.376829 -7.15372,3.887298 -8.819896,4.545597 -1.663941,0.657415 -4.13493,1.326226 -5.189342,1.404575 -0.526822,0.03914 -1.198398,0.08915 -1.492395,0.111128 -0.293997,0.02199 -1.114105,-0.0063 -1.822463,-0.06292 z"
       id="path4599"
       inkscape:connector-curvature="0" />
    <path
       style="fill:#5599ff;fill-opacity:1;stroke:#5599ff;stroke-width:0.13363476;stroke-opacity:1"
       d="m 95.73383,35.903357 c -3.815667,-0.483621 -6.493362,-1.65703 -11.759859,-5.153348 -3.445176,-2.28718 -4.895979,-3.128962 -7.216277,-4.187007 -3.710075,-1.691778 -7.124525,-2.677523 -11.158503,-3.221437 -2.161476,-0.291439 -8.045357,-0.330153 -10.356694,-0.06814 -8.420663,0.954553 -18.570953,4.777105 -25.891735,9.750708 -0.45937,0.312087 -0.835218,0.514633 -0.835218,0.450101 0,-0.227785 1.168811,-3.583254 1.661639,-4.770297 1.755588,-4.228573 4.703821,-8.73905 7.892716,-12.074993 1.312074,-1.372581 1.634858,-1.563121 4.677748,-2.761305 4.509299,-1.775603 8.688523,-2.561122 12.948505,-2.433781 4.353554,0.130141 7.216611,0.96723 11.00719,3.218244 2.909324,1.727687 4.958011,2.562582 7.827415,3.189888 1.192866,0.260784 1.748959,0.297 4.565544,0.297336 2.997404,2.65e-4 3.320894,-0.02381 4.944486,-0.369594 3.157296,-0.672396 6.789137,-2.061781 9.169849,-3.507988 l 0.789641,-0.479682 0.967005,0.887603 c 1.474044,1.353016 3.459424,3.564969 4.819891,5.369946 3.103927,4.118076 5.036547,8.02327 6.718247,13.575403 0.0469,0.154824 -0.002,0.23386 -0.14306,0.23386 -0.11765,0 -0.50072,0.145341 -0.85127,0.322977 -0.97612,0.494638 -3.22849,1.244192 -4.46119,1.484619 -1.082316,0.211093 -4.387446,0.364591 -5.31607,0.246891 z"
       id="path4601"
       inkscape:connector-curvature="0" />
    <path
       style="fill:#aaccff;fill-opacity:1;stroke:#aaccff;stroke-width:0.13363476;stroke-opacity:1"
       d="m 76.55724,17.952484 c -2.907662,-0.17525 -5.626991,-1.080704 -9.220797,-3.070249 -1.175986,-0.651031 -2.521046,-1.374939 -2.989025,-1.608682 -1.336035,-0.667317 -3.822134,-1.437781 -5.429964,-1.682793 -2.022912,-0.308266 -6.038178,-0.315896 -8.092707,-0.01537 -2.931827,0.428837 -6.610657,1.499788 -9.495769,2.764332 -1.746962,0.765694 -1.739172,0.765728 -0.91994,-0.004 2.332267,-2.191395 5.913691,-4.6229979 9.15018,-6.2125034 4.131077,-2.0288594 7.564697,-3.0962997 12.363339,-3.8435042 1.513033,-0.2355955 2.412293,-0.2815007 5.547521,-0.2831756 3.935421,-0.00212 5.643282,0.1657509 8.819894,0.8668465 5.534771,1.2215521 10.913369,3.7223091 15.635266,7.2695437 2.188583,1.644131 2.132176,1.511829 0.936265,2.196078 -2.326262,1.330984 -5.771576,2.632488 -8.635582,3.262183 -1.732029,0.380815 -4.882502,0.529257 -7.668681,0.361328 z"
       id="path4603"
       inkscape:connector-curvature="0" />
    <text
       xml:space="preserve"
       style="font-style:normal;font-weight:normal;font-size:10.58333302px;line-height:1.25;font-family:sans-serif;letter-spacing:0px;word-spacing:0px;fill:#000000;fill-opacity:1;stroke:none;stroke-width:0.26458332"
       x="131.07602"
       y="23.435366"
       id="text4607"><tspan
         sodipodi:role="line"
         id="tspan4605"
         x="131.07602"
         y="23.435366"
         style="font-style:normal;font-variant:normal;font-weight:bold;font-stretch:normal;font-size:19.75555611px;line-height:1.25;font-family:'Noto Sans';-inkscape-font-specification:'Noto Sans Bold';fill:#0055d4;stroke-width:0.26458332">get</tspan><tspan
         sodipodi:role="line"
         x="131.07602"
         y="48.12981"
         style="font-style:normal;font-variant:normal;font-weight:bold;font-stretch:normal;font-size:19.75555611px;line-height:1.25;font-family:'Noto Sans';-inkscape-font-specification:'Noto Sans Bold';fill:#0055d4;stroke-width:0.26458332"
         id="tspan4609">your</tspan><tspan
         sodipodi:role="line"
         x="131.07602"
         y="72.824257"
         style="font-style:normal;font-variant:normal;font-weight:bold;font-stretch:normal;font-size:19.75555611px;line-height:1.25;font-family:'Noto Sans';-inkscape-font-specification:'Noto Sans Bold';fill:#0055d4;stroke-width:0.26458332"
         id="tspan4611">job</tspan></text>
  </g>
</svg>
